<svg width="10" height="9" viewBox="0 0 10 9" fill="none" xmlns="http://www.w3.org/2000/svg">
<path fill-rule="evenodd" clip-rule="evenodd" d="M1.07066 0.12091C0.909429 0.282143 0.909429 0.543554 1.07066 0.704788L4.86588 4.5L1.07067 8.2952C0.909439 8.45644 0.909439 8.71785 1.07067 8.87908C1.23191 9.04031 1.49332 9.04032 1.65455 8.87908L5.44975 5.08388L9.24496 8.87908C9.40619 9.04032 9.6676 9.04031 9.82883 8.87908C9.99007 8.71785 9.99007 8.45644 9.82883 8.2952L6.03363 4.5L9.82884 0.704788C9.99008 0.543554 9.99008 0.282143 9.82884 0.12091C9.66761 -0.0403236 9.4062 -0.0403237 9.24497 0.12091L5.44975 3.91612L1.65454 0.12091C1.49331 -0.0403237 1.2319 -0.0403236 1.07066 0.12091Z" fill="#7F7F7F"/>
</svg>
