<svg width="60" height="60" viewBox="0 0 60 60" fill="none" xmlns="http://www.w3.org/2000/svg">
<circle cx="30" cy="30" r="29" fill="url(#paint0_linear)" stroke="white" stroke-width="2"/>
<g clip-path="url(#clip0)">
<path d="M33.2787 15.9687H26.6963V16.8663H24.7701V15.844C24.7764 14.8529 25.5805 14.0426 26.5716 14.0426H33.4096C34.4007 14.0426 35.2111 14.8529 35.2111 15.844V16.8663H33.2849V15.9687H33.2787Z" fill="#1E402C"/>
<path d="M20.3258 24.5022H39.6555C40.148 24.5022 40.5407 24.9261 40.5033 25.4185L38.9886 44.1124C38.9013 45.1534 38.0349 45.9575 36.9876 45.9575H22.9937C21.9465 45.9575 21.0801 45.1534 20.9928 44.1124L19.4781 25.4185C19.4407 24.9198 19.8272 24.5022 20.3258 24.5022ZM35.2797 43.9628C35.2984 43.9628 35.3171 43.9628 35.342 43.9628C35.8469 43.9628 36.2708 43.5701 36.302 43.059L37.2494 27.7124C37.2806 27.1825 36.8754 26.7213 36.3456 26.6901C35.8158 26.6589 35.3545 27.0579 35.3233 27.594L34.3759 42.9405C34.3447 43.4766 34.7436 43.9316 35.2797 43.9628ZM29.0152 43.0029C29.0152 43.5327 29.4453 43.9628 29.9813 43.9628C30.5174 43.9628 30.9475 43.5327 30.9475 43.0029V27.6563C30.9475 27.1264 30.5174 26.6901 29.9813 26.6901C29.4515 26.6901 29.0152 27.1202 29.0152 27.6563V43.0029ZM22.7381 27.7124L23.642 43.059C23.6732 43.5701 24.097 43.9628 24.6019 43.9628C24.6206 43.9628 24.6393 43.9628 24.658 43.9628C25.1879 43.9316 25.593 43.4766 25.5619 42.9468L24.658 27.6002C24.6269 27.0703 24.1718 26.6652 23.642 26.6963C23.1122 26.7275 22.707 27.1825 22.7381 27.7124Z" fill="#1E402C"/>
<path d="M18.2438 21.5289L18.8733 19.634C19.0416 19.1353 19.5091 18.7987 20.0327 18.7987H39.9484C40.4782 18.7987 40.9457 19.1353 41.1078 19.634L41.7374 21.5289C41.862 21.8967 41.7 22.2707 41.407 22.4515C41.2886 22.5263 41.1452 22.5699 40.9831 22.5699H18.9918C18.8359 22.5699 18.6926 22.5263 18.5679 22.4515C18.2749 22.2645 18.1191 21.8905 18.2438 21.5289Z" fill="#1E402C"/>
</g>
<defs>
<linearGradient id="paint0_linear" x1="-10.8333" y1="34.054" x2="74.5" y2="34.054" gradientUnits="userSpaceOnUse">
<stop offset="0.0810811" stop-color="#B58840"/>
<stop offset="0.494792" stop-color="#F2E996"/>
<stop offset="1" stop-color="#B58840"/>
</linearGradient>
<clipPath id="clip0">
<rect width="31.9149" height="31.9149" fill="white" transform="matrix(-1 0 0 1 45.9574 14.0426)"/>
</clipPath>
</defs>
</svg>
